<svg xmlns="http://www.w3.org/2000/svg" xmlns:xlink="http://www.w3.org/1999/xlink" id="Layer_1" x="0" y="0" version="1.1" viewBox="0 0 512 512" style="enable-background:new 0 0 512 512" xml:space="preserve"><circle style="fill:#e16b5a" cx="256" cy="256" r="256"/><g><path style="fill:#ccc" d="M105.86,346.256L244,258l-138.252-92.168c-3.484,2.94-5.752,7.276-5.752,12.168v156 C100,338.936,102.312,343.316,105.86,346.256z"/><path style="fill:#ccc" d="M406.252,165.832L268,258l138.14,88.256c3.548-2.94,5.86-7.32,5.86-12.256V178 C412,173.108,409.736,168.772,406.252,165.832z"/></g><path style="fill:#e6e6e6" d="M256,242L105.652,346.084c2.8,2.408,6.392,3.916,10.348,3.916h280c3.952,0,7.548-1.508,10.348-3.916	L256,242z"/><path style="fill:#f5f5f5" d="M256,270l150.348-104.084c-2.8-2.408-6.396-3.916-10.348-3.916H116	c-3.956,0-7.548,1.508-10.348,3.916L256,270z"/><path style="fill:#e16b5a" d="M408,416c-37.496,0-68-30.504-68-68s30.504-68,68-68s68,30.504,68,68S445.496,416,408,416z"/><circle style="fill:#f5f5f5" cx="408" cy="348" r="52"/><g><path style="fill:#e16b5a" d="M408,380c-17.644,0-32-14.356-32-32s14.356-32,32-32s32,14.356,32,32S425.644,380,408,380z M408,324 c-13.236,0-24,10.764-24,24s10.764,24,24,24s24-10.764,24-24S421.236,324,408,324z"/><rect x="403.979" y="319.971" transform="matrix(0.7074 0.7069 -0.7069 0.7074 365.359 -186.551)" style="fill:#e16b5a" width="8" height="56.003"/></g></svg>